<mxfile host="app.diagrams.net" agent="Mozilla/5.0 (Windows NT 10.0; Win64; x64) AppleWebKit/537.36 (KHTML, like Gecko) Chrome/139.0.0.0 Safari/537.36" version="28.2.5">
  <diagram name="第 1 页" id="oZjWurGtlgqgvDhw-Can">
    <mxGraphModel dx="1665" dy="751" grid="1" gridSize="10" guides="1" tooltips="1" connect="1" arrows="1" fold="1" page="1" pageScale="1" pageWidth="827" pageHeight="1169" math="0" shadow="0">
      <root>
        <mxCell id="0" />
        <mxCell id="1" parent="0" />
        <mxCell id="mfLFTRLLOklmTbTpKpWq-3" value="" style="edgeStyle=orthogonalEdgeStyle;rounded=0;orthogonalLoop=1;jettySize=auto;html=1;" edge="1" parent="1" source="mfLFTRLLOklmTbTpKpWq-1" target="mfLFTRLLOklmTbTpKpWq-2">
          <mxGeometry relative="1" as="geometry" />
        </mxCell>
        <mxCell id="mfLFTRLLOklmTbTpKpWq-4" value="单号为空" style="edgeLabel;html=1;align=center;verticalAlign=middle;resizable=0;points=[];" vertex="1" connectable="0" parent="mfLFTRLLOklmTbTpKpWq-3">
          <mxGeometry x="-0.05" y="-4" relative="1" as="geometry">
            <mxPoint as="offset" />
          </mxGeometry>
        </mxCell>
        <mxCell id="mfLFTRLLOklmTbTpKpWq-1" value="退料" style="rounded=0;whiteSpace=wrap;html=1;" vertex="1" parent="1">
          <mxGeometry x="310" y="50" width="120" height="60" as="geometry" />
        </mxCell>
        <mxCell id="mfLFTRLLOklmTbTpKpWq-6" value="" style="edgeStyle=orthogonalEdgeStyle;rounded=0;orthogonalLoop=1;jettySize=auto;html=1;" edge="1" parent="1" source="mfLFTRLLOklmTbTpKpWq-2" target="mfLFTRLLOklmTbTpKpWq-5">
          <mxGeometry relative="1" as="geometry" />
        </mxCell>
        <mxCell id="mfLFTRLLOklmTbTpKpWq-2" value="根据表单规则&lt;span style=&quot;color: rgb(106, 135, 89); font-family: &amp;quot;JetBrains Mono&amp;quot;, monospace; font-size: 9.8pt; background-color: rgb(43, 43, 43);&quot;&gt;inv_mo_material_return生成单号&lt;/span&gt;" style="whiteSpace=wrap;html=1;rounded=0;" vertex="1" parent="1">
          <mxGeometry x="310" y="190" width="120" height="60" as="geometry" />
        </mxCell>
        <mxCell id="mfLFTRLLOklmTbTpKpWq-9" value="" style="edgeStyle=orthogonalEdgeStyle;rounded=0;orthogonalLoop=1;jettySize=auto;html=1;" edge="1" parent="1" source="mfLFTRLLOklmTbTpKpWq-5" target="mfLFTRLLOklmTbTpKpWq-8">
          <mxGeometry relative="1" as="geometry" />
        </mxCell>
        <mxCell id="mfLFTRLLOklmTbTpKpWq-5" value="插入退料头表" style="whiteSpace=wrap;html=1;rounded=0;" vertex="1" parent="1">
          <mxGeometry x="310" y="330" width="120" height="60" as="geometry" />
        </mxCell>
        <mxCell id="mfLFTRLLOklmTbTpKpWq-7" value="对象是工单" style="text;html=1;align=center;verticalAlign=middle;whiteSpace=wrap;rounded=0;" vertex="1" parent="1">
          <mxGeometry x="450" y="350" width="100" height="30" as="geometry" />
        </mxCell>
        <mxCell id="mfLFTRLLOklmTbTpKpWq-11" value="" style="edgeStyle=orthogonalEdgeStyle;rounded=0;orthogonalLoop=1;jettySize=auto;html=1;" edge="1" parent="1" source="mfLFTRLLOklmTbTpKpWq-8" target="mfLFTRLLOklmTbTpKpWq-10">
          <mxGeometry relative="1" as="geometry" />
        </mxCell>
        <mxCell id="mfLFTRLLOklmTbTpKpWq-12" value="是" style="edgeLabel;html=1;align=center;verticalAlign=middle;resizable=0;points=[];" vertex="1" connectable="0" parent="mfLFTRLLOklmTbTpKpWq-11">
          <mxGeometry x="0.05" y="-1" relative="1" as="geometry">
            <mxPoint as="offset" />
          </mxGeometry>
        </mxCell>
        <mxCell id="mfLFTRLLOklmTbTpKpWq-8" value="明细不为空" style="whiteSpace=wrap;html=1;rounded=0;" vertex="1" parent="1">
          <mxGeometry x="310" y="470" width="120" height="60" as="geometry" />
        </mxCell>
        <mxCell id="mfLFTRLLOklmTbTpKpWq-15" value="" style="edgeStyle=orthogonalEdgeStyle;rounded=0;orthogonalLoop=1;jettySize=auto;html=1;" edge="1" parent="1" source="mfLFTRLLOklmTbTpKpWq-10" target="mfLFTRLLOklmTbTpKpWq-14">
          <mxGeometry relative="1" as="geometry" />
        </mxCell>
        <mxCell id="mfLFTRLLOklmTbTpKpWq-10" value="根据明细工单号和物料编码查剩余投料数" style="whiteSpace=wrap;html=1;rounded=0;" vertex="1" parent="1">
          <mxGeometry x="310" y="610" width="120" height="60" as="geometry" />
        </mxCell>
        <mxCell id="mfLFTRLLOklmTbTpKpWq-13" value="对象是工单bom" style="text;html=1;align=center;verticalAlign=middle;whiteSpace=wrap;rounded=0;" vertex="1" parent="1">
          <mxGeometry x="450" y="625" width="100" height="30" as="geometry" />
        </mxCell>
        <mxCell id="mfLFTRLLOklmTbTpKpWq-17" value="" style="edgeStyle=orthogonalEdgeStyle;rounded=0;orthogonalLoop=1;jettySize=auto;html=1;" edge="1" parent="1" source="mfLFTRLLOklmTbTpKpWq-14" target="mfLFTRLLOklmTbTpKpWq-16">
          <mxGeometry relative="1" as="geometry" />
        </mxCell>
        <mxCell id="mfLFTRLLOklmTbTpKpWq-18" value="是" style="edgeLabel;html=1;align=center;verticalAlign=middle;resizable=0;points=[];" vertex="1" connectable="0" parent="mfLFTRLLOklmTbTpKpWq-17">
          <mxGeometry x="-0.325" y="2" relative="1" as="geometry">
            <mxPoint as="offset" />
          </mxGeometry>
        </mxCell>
        <mxCell id="mfLFTRLLOklmTbTpKpWq-20" value="" style="edgeStyle=orthogonalEdgeStyle;rounded=0;orthogonalLoop=1;jettySize=auto;html=1;" edge="1" parent="1" source="mfLFTRLLOklmTbTpKpWq-14" target="mfLFTRLLOklmTbTpKpWq-19">
          <mxGeometry relative="1" as="geometry" />
        </mxCell>
        <mxCell id="mfLFTRLLOklmTbTpKpWq-21" value="否" style="edgeLabel;html=1;align=center;verticalAlign=middle;resizable=0;points=[];" vertex="1" connectable="0" parent="mfLFTRLLOklmTbTpKpWq-20">
          <mxGeometry x="-0.05" y="-3" relative="1" as="geometry">
            <mxPoint as="offset" />
          </mxGeometry>
        </mxCell>
        <mxCell id="mfLFTRLLOklmTbTpKpWq-14" value="剩余数量小于退料数" style="whiteSpace=wrap;html=1;rounded=0;" vertex="1" parent="1">
          <mxGeometry x="310" y="750" width="120" height="60" as="geometry" />
        </mxCell>
        <mxCell id="mfLFTRLLOklmTbTpKpWq-16" value="报错提示" style="whiteSpace=wrap;html=1;rounded=0;" vertex="1" parent="1">
          <mxGeometry x="510" y="750" width="120" height="60" as="geometry" />
        </mxCell>
        <mxCell id="mfLFTRLLOklmTbTpKpWq-23" value="" style="edgeStyle=orthogonalEdgeStyle;rounded=0;orthogonalLoop=1;jettySize=auto;html=1;" edge="1" parent="1" source="mfLFTRLLOklmTbTpKpWq-19" target="mfLFTRLLOklmTbTpKpWq-22">
          <mxGeometry relative="1" as="geometry" />
        </mxCell>
        <mxCell id="mfLFTRLLOklmTbTpKpWq-25" value="交易方式是入库&lt;div&gt;数量是退料数量&lt;/div&gt;&lt;div&gt;货位是退料货位&lt;/div&gt;" style="edgeLabel;html=1;align=center;verticalAlign=middle;resizable=0;points=[];" vertex="1" connectable="0" parent="mfLFTRLLOklmTbTpKpWq-23">
          <mxGeometry x="-0.175" relative="1" as="geometry">
            <mxPoint as="offset" />
          </mxGeometry>
        </mxCell>
        <mxCell id="mfLFTRLLOklmTbTpKpWq-19" value="插入退料明细表" style="whiteSpace=wrap;html=1;rounded=0;" vertex="1" parent="1">
          <mxGeometry x="310" y="890" width="120" height="60" as="geometry" />
        </mxCell>
        <mxCell id="mfLFTRLLOklmTbTpKpWq-22" value="更新现有量" style="whiteSpace=wrap;html=1;rounded=0;" vertex="1" parent="1">
          <mxGeometry x="310" y="1030" width="120" height="60" as="geometry" />
        </mxCell>
      </root>
    </mxGraphModel>
  </diagram>
</mxfile>
